{"asset":{"generator":"glTF-Transform v2.0.5","version":"2.0"},"accessors":[{"type":"VEC3","componentType":5123,"count":1649,"max":[16383,16383,16383],"min":[0,0,0],"bufferView":0,"byteOffset":0},{"type":"VEC3","componentType":5120,"count":1649,"normalized":true,"bufferView":1,"byteOffset":0},{"type":"VEC2","componentType":5123,"count":1649,"normalized":true,"bufferView":2,"byteOffset":0},{"type":"SCALAR","componentType":5123,"count":9216,"bufferView":3,"byteOffset":0}],"bufferViews":[{"buffer":0,"byteOffset":0,"byteLength":13192,"byteStride":8,"target":34962},{"buffer":0,"byteOffset":13192,"byteLength":6596,"byteStride":4,"target":34962},{"buffer":0,"byteOffset":19788,"byteLength":6596,"byteStride":4,"target":34962},{"buffer":0,"byteOffset":26384,"byteLength":18432,"target":34963}],"samplers":[{"wrapS":10497,"wrapT":10497}],"textures":[{"source":0,"sampler":0}],"images":[{"mimeType":"image/png","uri":"sun.png"}],"buffers":[{"uri":"sun.bin","byteLength":44816}],"materials":[{"name":"None","pbrMetallicRoughness":{"baseColorFactor":[0,0,0,1],"metallicFactor":0},"emissiveFactor":[1,1,1],"emissiveTexture":{"index":0,"extensions":{"KHR_texture_transform":{"offset":[0.0000999999975,0.000100016594],"scale":[16.0004616,16.0004616]}}}}],"meshes":[{"primitives":[{"attributes":{"POSITION":0,"NORMAL":1,"TEXCOORD_0":2},"mode":4,"material":0,"indices":3}]}],"nodes":[{"translation":[-500,-499.999969,-499.999969],"scale":[0.0610388815,0.0610388815,0.0610388815],"mesh":0}],"scenes":[{"name":"Scene","nodes":[0]}],"scene":0,"extensionsUsed":["KHR_mesh_quantization","KHR_texture_transform"],"extensionsRequired":["KHR_mesh_quantization"]}