{"asset":{"generator":"glTF-Transform v2.0.5","version":"2.0"},"accessors":[{"type":"VEC3","componentType":5123,"count":1750,"max":[16383,16328,16383],"min":[0,0,0],"bufferView":0,"byteOffset":0},{"type":"VEC3","componentType":5120,"count":1750,"normalized":true,"bufferView":1,"byteOffset":0},{"type":"VEC2","componentType":5123,"count":1750,"normalized":true,"bufferView":2,"byteOffset":0},{"type":"SCALAR","componentType":5123,"count":9216,"bufferView":3,"byteOffset":0}],"bufferViews":[{"buffer":0,"byteOffset":0,"byteLength":14000,"byteStride":8,"target":34962},{"buffer":0,"byteOffset":14000,"byteLength":7000,"byteStride":4,"target":34962},{"buffer":0,"byteOffset":21000,"byteLength":7000,"byteStride":4,"target":34962},{"buffer":0,"byteOffset":28000,"byteLength":18432,"target":34963}],"samplers":[{"magFilter":9729,"minFilter":9986,"wrapS":33071,"wrapT":33071},{"wrapS":10497,"wrapT":10497}],"textures":[{"source":1,"sampler":0},{"source":0,"sampler":1}],"images":[{"mimeType":"image/png","uri":"earth_1.png"},{"mimeType":"image/png","uri":"earth_2.png"}],"buffers":[{"uri":"earth.bin","byteLength":46432}],"materials":[{"name":"Default OBJ","pbrMetallicRoughness":{"roughnessFactor":0.899999976,"metallicFactor":0.25,"baseColorTexture":{"index":0,"extensions":{"KHR_texture_transform":{"offset":[0.00509901345,0.00509893894],"scale":[15.8404579,15.8404598]}}}},"normalTexture":{"index":1,"extensions":{"KHR_texture_transform":{"offset":[0.00509901345,0.00509893894],"scale":[15.8404579,15.8404598]}}}}],"meshes":[{"primitives":[{"attributes":{"POSITION":0,"NORMAL":1,"TEXCOORD_0":2},"mode":4,"material":0,"indices":3}]}],"nodes":[{"translation":[-499.999969,-498.323517,-500],"scale":[0.0610388815,0.0610388815,0.0610388815],"mesh":0}],"scenes":[{"name":"Scene","nodes":[0]}],"scene":0,"extensionsUsed":["KHR_mesh_quantization","KHR_texture_transform"],"extensionsRequired":["KHR_mesh_quantization"]}